<svg width="25" height="15" viewBox="0 0 25 15" fill="none" xmlns="http://www.w3.org/2000/svg">
<path d="M1 6.36395C0.447715 6.36395 0 6.81167 0 7.36395C0 7.91624 0.447715 8.36395 1 8.36395L1 6.36395ZM24.7071 8.07106C25.0976 7.68054 25.0976 7.04737 24.7071 6.65685L18.3431 0.292885C17.9526 -0.0976396 17.3195 -0.0976396 16.9289 0.292885C16.5384 0.683409 16.5384 1.31657 16.9289 1.7071L22.5858 7.36395L16.9289 13.0208C16.5384 13.4113 16.5384 14.0445 16.9289 14.435C17.3195 14.8255 17.9526 14.8255 18.3431 14.435L24.7071 8.07106ZM1 8.36395L24 8.36395V6.36395L1 6.36395L1 8.36395Z" fill="#424242"/>
</svg>
