<svg width="14" height="12" viewBox="0 0 14 12" fill="none" xmlns="http://www.w3.org/2000/svg">
<path fill-rule="evenodd" clip-rule="evenodd" d="M3.86567 3.2503.86567 2.00736 4.97828 1 6.35075 107.72322 1 8.83582 2.00736 8.83582 3.2508.83582 4.49264 7.72322 5.5 6.35075 5.504.97828 5.5 3.86567 4.49264 3.86567 3.25ZM6.35075 205.58826 2 4.97015 2.55964 4.97015 3.2504.97015 3.94036 5.58826 4.5 6.35075 4.507.11323 4.5 7.73135 3.94036 7.73135 3.2507.73135 2.55964 7.11323 2 6.35075 2Z" fill="black"/>
<path fill-rule="evenodd" clip-rule="evenodd" d="M5.71965 6.5H6.9818507.58034 6.5 8.0631 6.49999 8.45401 6.5289108.85651 6.55868 9.21004 6.62158 9.53712 6.77247010.0567 7.01215 10.4791 7.39462 10.7438 7.86503010.9105 8.16117 10.98 8.48127 11.0129 8.8457011.0448 9.19961 11.0448 9.63664 11.0448 10.1785V10.5011.0448 10.7761 10.7975 11 10.4925 11H2.20896C1.90396 11 1.65672 10.7761 1.65672 10.5V10.1786C1.65671 9.63671 1. 65671 9.19963 1.68865 8.84569
<path d="M4.97015 3.2504.97015 2.55964 5.58826 2 6.35075 207.11323 2 7.73135 2.55964 7.73135 3.2507.73135 3.94036 7.11323 4.5 6.35075 4.505.58826 4.5 4.97015 3.94036 4.97015 3.252" fill="black"/>
<path d="M3.66577 7.66349C3.35405 7.8073 3.1006 8.03678 2.94177 8.3190202.86767 8.4507 2.81676 8.62454 2.78946 8.9271302.76501 9.19801 2.76171 9.53657 2.76126 10H9.9402309.93979 9.53657 9.93649 9.19801 9.91204 8.9271209.88474 8.62455 9.83384 8.4507 9.75974 8.3190209.60091 8.03679 9.34743 7.80729 9.03571 7.6634808.89027 7.59639 8.69826 7.55031 8.36408 7.5255908.02343 7.50039 7.58589 7.5 6.95821 7.5H5.74329C5.11561 7.5 4.67807 7.50039 4.33742 7.52
</svg>




