<svg width="30" height="30" viewBox="0 0 30 30" fill="none" xmlns="http://www.w3.org/2000/svg">
<path d="M15 30C18.9782 30 22.7936 28.4196 25.6066 25.6066C28.4196 22.7936 30 18.9782 30 15C30 11.0218 28.4196 7.20644 25.6066 4.3934C22.7936 1.58035 18.9782 0 15 0C11.0218 0 7.20644 1.58035 4.3934 4.3934C1.58035 7.20644 0 11.0218 0 15C0 18.9782 1.58035 22.7936 4.3934 25.6066C7.20644 28.4196 11.0218 30 15 30ZM11.25 9.375C11.25 8.38044 11.6451 7.42661 12.3484 6.72335C13.0516 6.02009 14.0054 5.625 15 5.625C15.9946 5.625 16.9484 6.02009 17.6516 6.72335C18.3549 7.42661 18.75 8.38044 18.75 9.375C18.75 10.3696 18.3549 11.3234 17.6516 12.0266C16.9484 12.7299 15.9946 13.125 15 13.125C14.0054 13.125 13.0516 12.7299 12.3484 12.0266C11.6451 11.3234 11.25 10.3696 11.25 9.375ZM10.3125 15H19.6875C20.4334 15 21.1488 15.2963 21.6762 15.8238C22.2037 16.3512 22.5 17.0666 22.5 17.8125C22.5 19.905 21.6394 21.5812 20.2275 22.7156C18.8381 23.8312 16.9744 24.375 15 24.375C13.0256 24.375 11.1619 23.8312 9.7725 22.7156C8.3625 21.5812 7.5 19.905 7.5 17.8125C7.5 17.0666 7.79632 16.3512 8.32376 15.8238C8.85121 15.2963 9.56658 15 10.3125 15Z" fill="black"/>
</svg>
