<svg width="21" height="20" viewBox="0 0 21 20" fill="none" xmlns="http://www.w3.org/2000/svg">
<path fill-rule="evenodd" clip-rule="evenodd" d="M18.2058 6.33608L17.6612 5.4384C17.2004 4.67882 16.1794 4.41679 15.3786 4.85262V4.85262C14.9974 5.06591 14.5426 5.12642 14.1144 5.02082C13.6862 4.91521 13.3198 4.65216 13.096 4.28967C12.952 4.05926 12.8747 3.79684 12.8717 3.52892V3.52892C12.8847 3.09938 12.7141 2.68314 12.3988 2.37502C12.0834 2.0669 11.6502 1.89313 11.1978 1.89331H10.1006C9.65734 1.8933 9.2324 2.06106 8.91975 2.35946C8.6071 2.65786 8.43253 3.06229 8.43466 3.48328V3.48328C8.42152 4.35246 7.67592 5.05051 6.76075 5.05042C6.47869 5.04764 6.2024 4.97416 5.95983 4.83741V4.83741C5.15906 4.40157 4.13798 4.66361 3.67722 5.42319L3.09256 6.33608C2.63236 7.09471 2.90448 8.06397 3.70125 8.50422V8.50422C4.21917 8.78824 4.53822 9.31313 4.53822 9.88117C4.53822 10.4492 4.21917 10.9741 3.70125 11.2581V11.2581C2.90549 11.6954 2.63308 12.6623 3.09256 13.4187V13.4187L3.64519 14.3239C3.86107 14.694 4.22328 14.967 4.65167 15.0826C5.08006 15.1983 5.53931 15.147 5.92779 14.9402V14.9402C6.3097 14.7285 6.76479 14.6705 7.19192 14.7791C7.61905 14.8876 7.98283 15.1538 8.20239 15.5183C8.34636 15.7487 8.42372 16.0112 8.42665 16.2791V16.2791C8.42665 17.1572 9.17608 17.869 10.1006 17.869H11.1978C12.1192 17.869 12.8673 17.1618 12.8717 16.2867V16.2867C12.8696 15.8644 13.0453 15.4588 13.3596 15.1602C13.674 14.8615 14.101 14.6947 14.5456 14.6967C14.827 14.7039 15.1022 14.777 15.3466 14.9097V14.9097C16.1452 15.3468 17.1657 15.0884 17.6292 14.3316V14.3316L18.2058 13.4187C18.429 13.0547 18.4903 12.6213 18.376 12.2144C18.2618 11.8074 17.9815 11.4605 17.5971 11.2505V11.2505C17.2128 11.0405 16.9325 10.6936 16.8182 10.2867C16.704 9.87972 16.7652 9.4463 16.9884 9.08239C17.1336 8.84167 17.3437 8.64209 17.5971 8.50422V8.50422C18.3891 8.06421 18.6606 7.10061 18.2058 6.34369V6.34369V6.33608Z" stroke="black" stroke-width="1.1433" stroke-linecap="round" stroke-linejoin="round"/>
<ellipse cx="10.6532" cy="9.88117" rx="2.30663" ry="2.19096" stroke="black" stroke-width="1.1433" stroke-linecap="round" stroke-linejoin="round"/>
</svg>
