<svg width="25" height="27" viewBox="0 0 25 27" fill="none" xmlns="http://www.w3.org/2000/svg">
<path d="M10.7314 0.607579C11.2302 0.214323 11.8505 0 12.49 0C13.1295 0 13.7498 0.214323 14.2486 0.607579L23.9283 8.23857C24.2566 8.49735 24.5215 8.82526 24.7035 9.19811C24.8855 9.57095 24.98 9.9792 24.98 10.3927V24.2383C24.98 24.9707 24.6839 25.6732 24.1569 26.1911C23.6299 26.709 22.9151 27 22.1697 27H19.0472C18.3019 27 17.5871 26.709 17.0601 26.1911C16.5331 25.6732 16.237 24.9707 16.237 24.2383V16.2599C16.237 16.0157 16.1383 15.7816 15.9626 15.6089C15.787 15.4363 15.5487 15.3393 15.3002 15.3393H9.67975C9.43131 15.3393 9.19304 15.4363 9.01737 15.6089C8.84169 15.7816 8.743 16.0157 8.743 16.2599V24.2383C8.743 24.9707 8.44692 25.6732 7.9199 26.1911C7.39287 26.709 6.67807 27 5.93275 27H2.81025C2.06493 27 1.35013 26.709 0.823103 26.1911C0.296079 25.6732 0 24.9707 0 24.2383V10.3927C0 9.55439 0.38719 8.76269 1.05166 8.23857L10.7314 0.607579Z" fill="white"/>
</svg>
