<svg width="23" height="25" viewBox="0 0 23 25" fill="none" xmlns="http://www.w3.org/2000/svg">
<path d="M1.95199 24.8142C1.76777 24.9203 1.55053 24.9837 1.32422 24.9972C1.09791 25.0108 0.871315 24.974 0.669429 24.891C0.467544 24.808 0.298204 24.6819 0.180082 24.5267C0.0619599 24.3715 -0.000357162 24.1931 1.53984e-06 24.0113V4.2774C1.53984e-06 3.14296 0.562613 2.05499 1.56407 1.25282C2.56552 0.450653 3.92378 0 5.34005 0H17.6616C19.0773 0.000348864 20.4349 0.450976 21.4359 1.25282C22.437 2.05467 22.9996 3.1421 23 4.27608V24.0127C23.0001 24.1943 22.9375 24.3725 22.8193 24.5275C22.701 24.6826 22.5317 24.8084 22.3298 24.8913C22.128 24.9742 21.9015 25.0108 21.6754 24.9972C21.4492 24.9836 21.2321 24.9203 21.048 24.8142L11.5 19.3115L1.95035 24.8129L1.95199 24.8142Z" fill="black"/>
</svg>
